PathFileType	4	(X/Y/Z)	C:/Users/rsk02/Documents/GitHub/TechForParalysis/Code/Model/04122019 - Marker Volunteer01/Rosti Data/New Session 109.trc	
DataRate	CameraRate	NumFrames	NumMarkers	Units	OrigDataRate	OrigDataStartFrame	OrigNumFrames	
100.00	100.00	20	14	mm	100.00	428	1141	
Frame#	Time	C7			PX			T8			IJ			SC			AC			AI			TS			AA			GH			LE			ME			US			RS			
		X1	Y1	Z1	X2	Y2	Z2	X3	Y3	Z3	X4	Y4	Z4	X5	Y5	Z5	X6	Y6	Z6	X7	Y7	Z7	X8	Y8	Z8	X9	Y9	Z9	X10	Y10	Z10	X11	Y11	Z11	X12	Y12	Z12	X13	Y13	Z13	X14	Y14	Z14	

428	4.270	674.29181	-17.80279	1544.94299	467.84177	-34.70979	1277.38416	759.50623	-6.21701	1335.86951	520.49219	-43.63821	1424.43372	522.68811	-19.15762	1434.53467	571.60962	106.15097	1517.96594	705.74158	72.17570	1479.45007	735.70978	83.74496	1362.15149	624.12958	179.31075	1481.88513	583.83545	176.90416	1503.78223	404.21936	274.44635	1292.73572	403.85474	207.76277	1224.37170	156.20535	182.58728	1340.05884	181.35034	160.52618	1413.47571 
429	4.280	673.82159	-18.12483	1545.02747	467.32086	-34.56969	1277.33862	759.09387	-6.54352	1335.86365	519.98151	-43.42500	1424.40784	522.39154	-18.90048	1434.60730	571.79639	106.43420	1517.87488	705.87451	71.53763	1479.68848	735.81494	83.12295	1362.09741	625.26849	178.84737	1481.76270	584.89197	177.19409	1503.40173	412.17618	276.20901	1287.22974	412.05762	208.82491	1219.61890	165.90295	182.75781	1337.35413	191.95464	161.70265	1410.79016 
430	4.290	673.32501	-18.43870	1545.10645	466.79706	-34.40568	1277.29761	758.64612	-6.86233	1335.86719	519.45306	-43.22934	1424.43262	522.07397	-18.59465	1434.67175	571.98175	106.79872	1517.76331	706.00287	70.94895	1479.91589	735.96851	82.50212	1362.09009	626.41425	178.43234	1481.52356	585.92761	177.45229	1502.85486	420.29544	278.03687	1281.99854	420.32404	209.85149	1214.98523	175.69296	183.10005	1334.55627	202.59438	162.67113	1407.93750 
431	4.300	672.83594	-18.74839	1545.17126	466.28113	-34.22576	1277.26794	758.17786	-7.18231	1335.87659	518.92310	-43.06495	1424.50000	521.70660	-18.30735	1434.68872	572.16486	107.25168	1517.64185	706.14526	70.34954	1480.07593	736.15814	81.88942	1362.07922	627.59869	178.02124	1481.22449	586.99280	177.69342	1502.21826	428.55014	279.85071	1277.07727	428.68417	210.89586	1210.45496	185.59251	183.58932	1331.67944	213.26506	163.50168	1404.94958 
432	4.310	672.36493	-19.05661	1545.21313	465.78152	-34.04117	1277.25403	757.71289	-7.52624	1335.88489	518.41907	-42.93383	1424.57178	521.25623	-18.09181	1434.65112	572.36786	107.73383	1517.50342	706.32214	69.69290	1480.15833	736.37604	81.26807	1362.02673	628.84009	177.56976	1480.92029	588.15509	177.95131	1501.58154	436.93851	281.54169	1272.42236	437.19891	211.94141	1206.02173	195.63924	184.17767	1328.74109	223.96208	164.34926	1401.87292 
433	4.320	671.91095	-19.36088	1545.24109	465.30377	-33.86153	1277.25671	757.27893	-7.91679	1335.88403	517.95288	-42.80752	1424.60498	520.72699	-17.92527	1434.59497	572.61676	108.15539	1517.32349	706.54138	68.95868	1480.20227	736.61597	80.60812	1361.92346	630.13861	177.06583	1480.64429	589.40491	178.18497	1500.96680	445.46069	283.05923	1267.94006	445.92691	212.94237	1201.69617	205.81891	184.80980	1325.73560	234.67525	165.36205	1398.75513 
434	4.330	671.46350	-19.65520	1545.28113	464.84973	-33.69374	1277.27649	756.89246	-8.35917	1335.87268	517.50537	-42.64096	1424.58142	520.18317	-17.78667	1434.55530	572.89465	108.49992	1517.09375	706.75647	68.15048	1480.24744	736.86700	79.88539	1361.78955	631.47040	176.52344	1480.40466	590.67987	178.34494	1500.36597	454.12564	284.43356	1263.54675	454.90524	213.86456	1197.50488	216.05667	185.43193	1322.63684	245.37628	166.59752	1395.61584 
435	4.340	671.00806	-19.94444	1545.36169	464.41681	-33.54316	1277.31555	756.54724	-8.83813	1335.85901	517.04230	-42.41642	1424.52014	519.69012	-17.66801	1434.54321	573.15472	108.81894	1516.82080	706.87799	67.30546	1480.29541	737.11462	79.09224	1361.65991	632.78723	175.98036	1480.19702	591.92578	178.47078	1499.80884	462.95023	285.73337	1259.21570	464.14420	214.70309	1193.48315	226.27843	186.04214	1319.44067	256.01703	168.01984	1392.44434 
436	4.350	670.53284	-20.23893	1545.49109	463.99652	-33.41444	1277.37476	756.21899	-9.33152	1335.85559	516.53998	-42.15642	1424.48157	519.27289	-17.55852	1434.55322	573.36206	109.14539	1516.48438	706.85205	66.48467	1480.32458	737.34912	78.23769	1361.55957	634.04974	175.48982	1480.02380	593.11725	178.63271	1499.31213	471.94687	287.01166	1254.99951	473.61566	215.45523	1189.65625	236.43689	186.68362	1316.16992	266.54718	169.54228	1389.22290 
437	4.360	670.02631	-20.53534	1545.63879	463.57428	-33.31023	1277.44800	755.88123	-9.82640	1335.87122	515.98828	-41.90966	1424.52930	518.88831	-17.44854	1434.59753	573.51001	109.51419	1516.05847	706.71179	65.71969	1480.31360	737.57361	77.34432	1361.48889	635.25677	175.07912	1479.88269	594.27502	178.86034	1498.85254	481.09552	288.26172	1250.99097	483.25803	216.09990	1186.02380	246.50449	187.41573	1312.84924	276.93707	171.05443	1385.93823 
438	4.370	669.48187	-20.82090	1545.75964	463.13177	-33.22913	1277.51550	755.51837	-10.32367	1335.90710	515.38068	-41.72671	1424.67932	518.41290	-17.33374	1434.68994	573.61853	109.95827	1515.54053	706.54932	64.99574	1480.25525	737.80090	76.44310	1361.42639	636.44318	174.73322	1479.75220	595.41913	179.11430	1498.37024	490.34677	289.46442	1247.26758	493.00226	216.61224	1182.57556	256.49451	188.33017	1309.50244	287.19006	172.42484	1382.57202 
439	4.380	668.90601	-21.08908	1545.83313	462.65298	-33.16562	1277.54456	755.12909	-10.82908	1335.96045	514.72363	-41.63135	1424.89600	517.74963	-17.25936	1434.81421	573.72070	110.47674	1514.93359	706.44000	64.29293	1480.16699	738.04120	75.56107	1361.34692	637.64502	174.42676	1479.59814	596.56714	179.35049	1497.80786	499.64688	290.61740	1243.85962	502.78979	217.00613	1179.32727	266.46121	189.51314	1306.16479	297.34744	173.53386	1379.11267 
440	4.390	668.31238	-21.34774	1545.87329	462.13181	-33.11290	1277.50635	754.72290	-11.34368	1336.02869	514.05023	-41.60708	1425.09045	516.98065	-17.26046	1434.90405	573.85303	111.01366	1514.21997	706.39630	63.59757	1480.06885	738.29340	74.70413	1361.24133	638.88080	174.14102	1479.39246	597.73346	179.56407	1497.14526	508.95938	291.71896	1240.75269	512.62317	217.36462	1176.31226	276.44321	190.95981	1302.87268	307.47040	174.34207	1375.57568 
441	4.400	667.70410	-21.60356	1545.90796	461.58035	-33.06406	1277.39355	754.31329	-11.86279	1336.10913	513.40924	-41.61618	1425.16492	516.30920	-17.29987	1434.88013	574.04962	111.49895	1513.38647	706.37750	62.87299	1479.95142	738.54950	73.85429	1361.12012	640.16779	173.84198	1479.12830	598.93634	179.76508	1496.40833	518.28510	292.75244	1237.91016	522.56262	217.78214	1173.55591	286.41394	192.49603	1299.65161	317.59375	174.95004	1372.01343 
442	4.410	667.06964	-21.84537	1545.95337	461.02597	-33.01183	1277.22327	753.91156	-12.37937	1336.19861	512.82135	-41.60838	1425.08594	515.78937	-17.28374	1434.76672	574.32452	111.91247	1512.48364	706.33252	62.07455	1479.78455	738.80231	72.98370	1361.00012	641.52618	173.48779	1478.81934	600.19641	179.94623	1495.66748	527.66400	293.68677	1235.30237	532.67554	218.27875	1171.07471	296.31793	193.88060	1296.49316	327.70746	175.56241	1368.51111 
443	4.420	666.40686	-22.05768	1546.01294	460.49438	-32.95036	1277.02527	753.52191	-12.88582	1336.29248	512.27460	-41.54568	1424.90540	515.35059	-17.16176	1434.62927	574.66302	112.32897	1511.63562	706.24615	61.21133	1479.55896	739.05310	72.07771	1360.88562	642.95929	173.05946	1478.48755	601.52039	180.10872	1495.00415	537.14703	294.49902	1232.93030	542.97156	218.77051	1168.89160	306.15036	195.01039	1293.36523	337.75955	176.37340	1365.15381 
444	4.430	665.73486	-22.23868	1546.07959	459.99643	-32.87638	1276.82922	753.13904	-13.37434	1336.38416	511.74524	-41.42294	1424.71899	514.91479	-16.98478	1434.49548	575.02490	112.86268	1510.94836	706.15149	60.34939	1479.30530	739.31677	71.14545	1360.76196	644.43817	172.56810	1478.14758	602.91058	180.27049	1494.45752	546.75610	295.19681	1230.83826	553.38916	219.16193	1167.04382	315.93890	195.92221	1290.25244	347.67065	177.45236	1361.99548 
445	4.440	665.08099	-22.39699	1546.13977	459.52499	-32.78732	1276.65869	752.75079	-13.84004	1336.46765	511.20929	-41.24282	1424.59155	514.44373	-16.80206	1434.38354	575.38220	113.52937	1510.39050	706.08496	59.55537	1479.06677	739.61694	70.20880	1360.61267	645.90540	172.05887	1477.81323	604.37518	180.42876	1493.98279	556.46240	295.79144	1229.08801	563.82111	219.40269	1165.55933	325.67490	196.67307	1287.18530	357.35278	178.74057	1359.04285 
446	4.450	664.46246	-22.53888	1546.18579	459.05762	-32.67907	1276.53052	752.34595	-14.28595	1336.54163	510.65204	-40.99483	1424.52710	513.94409	-16.59657	1434.29712	575.71899	114.26356	1509.86572	706.04504	58.85957	1478.87292	739.97748	69.28831	1360.44434	647.32874	171.56715	1477.50159	605.89612	180.57092	1493.50244	566.19934	296.28339	1227.71680	574.15405	219.48917	1164.42297	335.28900	197.27853	1284.20654	366.73926	180.14700	1356.26904 
447	4.460	663.87518	-22.66966	1546.22046	458.56244	-32.54586	1276.45581	751.92114	-14.72135	1336.61255	510.07382	-40.66185	1424.49280	513.40985	-16.27782	1434.21851	576.04553	114.98509	1509.30396	706.01129	58.25336	1478.74194	740.41559	68.40102	1360.28687	648.71442	171.09856	1477.21985	607.44666	180.69020	1492.96069	575.88959	296.67429	1226.71021	584.30780	219.44069	1163.57349	344.71848	197.78021	1281.34570	375.84045	181.53162	1353.65027 
